# xmcd CD database file
#
# Track frame offsets:
#	150
#	19702
#	36230
#	52275
#	70807
#	92650
#	106822
#	125604
#	145117
#	162320
#	180412
#	197412
#
# Disc length: 2843 seconds
#
# Revision: 4
# Processed by: cddbd v1.4PL0 Copyright (c) Steve Scherf et al.
# Submitted via: CDex 1.40Beta9
#
DISCID=a00b190c
DTITLE=Zezé Di Camargo e Luciano - Saudade Bandida
DYEAR=1998
DGENRE=Country
TTITLE0=Saudade Bandida
TTITLE1=Fazer Amor
TTITLE2=Andorinha Machucada
TTITLE3=Quatro Estações
TTITLE4=Tudo de novo
TTITLE5=Vá embora
TTITLE6=Faz mais uam vez comigo
TTITLE7=Melhor que antes
TTITLE8=Eu só penso em voçê - Always on my mind
TTITLE9=Olhos de lua
TTITLE10=Mais do que eu
TTITLE11=Pedaço de mim
EXTD=performed by Guido Schiefen YEAR: 1998 ID3G: 2
EXTT0=
EXTT1=
EXTT2=
EXTT3=
EXTT4=
EXTT5=
EXTT6=
EXTT7=
EXTT8=
EXTT9=
EXTT10=
EXTT11=
PLAYORDER=
